<svg width="155" height="89" viewBox="0 0 155 89" fill="none" xmlns="http://www.w3.org/2000/svg">
<path d="M129.901 57.0896L129.514 58.0252L128.572 57.6257L100.787 44.661L128.572 31.693L129.514 31.2252L129.684 31.8193C130.95 34.9503 131.826 38.276 132.119 41.6939C132.579 47.0375 131.826 52.2411 129.901 57.0896ZM142.485 25.8133L155 19.2166V0.751221L153.934 1.33168L77.1536 41.1305L70.1917 44.6986L77.137 48.0618L153.924 88.1099L155 88.6972V70.1089L141.689 63.2288L142.022 62.5049L142.086 62.3342C144.237 56.697 145.337 50.7763 145.337 44.7259C145.337 38.5901 144.237 32.6388 142.086 27.0254L142.022 26.8581L141.756 26.2196L142.485 25.8133Z" fill="#FFDA24"/>
<path d="M3.67414 1.36279V7.73415H9.69666V1.36279H13.3441V17.9399H9.69666V11.0052H3.67414V17.9399H0V1.36279H3.67414Z" fill="white"/>
<path d="M26.1585 10.9335H20.206V14.8704H26.8514V17.9434H16.5318V1.36621H26.515V4.43921H20.2026V7.88098H26.1552V10.9335H26.1585Z" fill="white"/>
<path d="M29.35 1.58436C30.3093 1.38632 32.2546 1.2395 34.0767 1.2395C36.3085 1.2395 37.6776 1.46144 38.8501 2.17506C39.9793 2.78966 40.7921 3.92326 40.7921 5.4222C40.7921 6.89724 39.9527 8.27668 38.1272 8.96298V9.01078C39.976 9.52637 41.3417 10.9536 41.3417 13.0945C41.3417 14.5934 40.6688 15.7748 39.6629 16.6113C38.487 17.5708 36.5184 18.1103 33.3039 18.1103C31.5051 18.1103 30.1594 17.9874 29.3433 17.8645V1.58436H29.35ZM32.9741 7.93182H34.1733C36.092 7.93182 37.1246 7.11918 37.1246 5.88998C37.1246 4.63688 36.1886 3.97106 34.5331 3.97106C33.7403 3.97106 33.2839 4.01886 32.9741 4.07008V7.93182ZM32.9741 15.2865C33.3339 15.3343 33.7669 15.3343 34.3898 15.3343C36.0453 15.3343 37.5077 14.6958 37.5077 12.9476C37.5077 11.2746 36.0453 10.6122 34.2199 10.6122H32.9708V15.2865H32.9741Z" fill="white"/>
<path d="M55.6283 17.4753C54.9555 17.8202 53.4432 18.1889 51.4778 18.1889C45.8884 18.1889 43.007 14.6208 43.007 9.89864C43.007 4.2409 46.941 1.09277 51.8376 1.09277C53.733 1.09277 55.172 1.48544 55.8215 1.8303L55.0787 4.8077C54.3359 4.48674 53.3033 4.19309 52.0075 4.19309C49.1028 4.19309 46.8477 5.98909 46.8477 9.6767C46.8477 12.9955 48.7664 15.0886 52.0308 15.0886C53.1334 15.0886 54.3592 14.8428 55.0787 14.5491L55.6283 17.4753Z" fill="white"/>
<path d="M61.651 1.36279V8.24973H61.9641L66.4277 1.36279H70.868L65.2285 8.71751C67.3171 9.257 68.2531 10.7355 68.9226 12.7261C69.4989 14.4982 70.0252 16.2942 70.7947 17.9399H66.8607C66.3078 16.8098 65.998 15.5293 65.6116 14.3001C65.0586 12.429 64.3158 11.0052 62.3472 11.0052H61.651V17.9399H58.0268V1.36279H61.651Z" fill="white"/>
<path d="M76.6005 13.6855L75.448 17.9399H71.6572L76.6005 1.36279H81.4005L86.4171 17.9399H82.4831L81.234 13.6855H76.6005ZM80.7043 10.8823L79.695 7.36539C79.4086 6.38203 79.1188 5.15283 78.8789 4.16605H78.8323C78.5925 5.14941 78.3526 6.40593 78.0895 7.36539L77.1301 10.8823H80.7043Z" fill="white"/>
<path d="M87.1832 17.9432C87.5197 17.4037 87.7828 16.7618 87.9993 16.0755C88.6489 14.1805 89.032 12.2377 90.2544 11.0324C90.6142 10.6636 91.0939 10.3939 91.5969 10.1719V10.0968C89.7981 9.75197 88.1892 8.47496 88.1892 6.06436C88.1892 4.5142 88.8621 3.33281 89.8681 2.54749C91.1172 1.56412 93.0825 1.24316 95.1477 1.24316C96.9232 1.24316 98.6287 1.38998 99.8045 1.58802V17.9432H96.1804V11.4251H95.291C94.5715 11.4251 93.9952 11.647 93.5622 12.0636C92.5296 13.0708 92.1232 15.1878 91.6435 16.5399C91.4769 17.0316 91.3537 17.4242 91.0672 17.9432H87.1832ZM96.1837 4.16593C95.9206 4.11813 95.4409 4.01911 94.6947 4.01911C93.1125 4.01911 91.84 4.70883 91.84 6.40581C91.84 7.93207 93.2091 8.7413 94.8646 8.7413C95.3443 8.7413 95.8473 8.71739 96.1837 8.66618V4.16593Z" fill="white"/>
<path d="M13.0777 72.042V88.6191H9.40686V75.115H3.67414V88.6191H0V72.042H13.0777Z" fill="white"/>
<path d="M20.0162 84.3647L18.8637 88.6191H15.0729L20.0162 72.042H24.8162L29.8328 88.6191H25.8988L24.6497 84.3647H20.0162ZM24.1167 81.5615L23.1074 78.0446C22.8209 77.0612 22.5311 75.832 22.2913 74.8453H22.2447C22.0048 75.8286 21.765 77.0851 21.5018 78.0446L20.5425 81.5615H24.1167Z" fill="white"/>
<path d="M44.6126 72.042V88.6191H40.9651V75.115H37.2943V79.0519C37.2943 83.3063 36.768 86.5773 34.3197 88.0558C33.5036 88.5235 32.401 88.8684 31.1052 88.8684L30.6489 85.8432C31.4417 85.7442 32.0879 85.3993 32.4976 84.9588C33.4803 83.9243 33.7201 81.8107 33.7201 79.3011V72.0454H44.6126V72.042Z" fill="white"/>
<path d="M51.1648 72.042V76.9622C51.1648 79.6187 51.1182 82.2512 50.9716 84.4638H51.0682C51.9076 82.5209 52.9869 80.3323 53.9462 78.5602L57.4272 72.042H61.1713V88.6191H57.8136V83.7262C57.8136 81.1688 57.8602 78.905 58.0767 76.7403H58.0034C57.2606 78.707 56.228 80.8957 55.2687 82.6439L51.9809 88.6191H47.8071V72.042H51.1648Z" fill="white"/>
<path d="M67.4836 75.1901H63.1399V72.042H75.568V75.1901H71.1544V88.6191H67.4836V75.1901Z" fill="white"/>
<path d="M77.5132 72.2638C78.6424 72.0658 80.2247 71.9189 82.4565 71.9189C84.7116 71.9189 86.3205 72.3628 87.3997 73.2472C88.4323 74.0837 89.1285 75.4597 89.1285 77.085C89.1285 78.7069 88.6022 80.0863 87.6396 81.0219C86.3904 82.2272 84.545 82.7701 82.3832 82.7701C81.9035 82.7701 81.4705 82.7462 81.134 82.6949V88.6224H77.5132V72.2638ZM81.1374 79.7893C81.4505 79.8644 81.8335 79.8883 82.3599 79.8883C84.3018 79.8883 85.5044 78.881 85.5044 77.184C85.5044 75.6578 84.4717 74.7495 82.6497 74.7495C81.9068 74.7495 81.4005 74.8246 81.1374 74.8963V79.7893Z" fill="white"/>
<path d="M93.7587 84.3647L92.6061 88.6191H88.8154L93.7587 72.042H98.5587L103.575 88.6191H99.6413L98.3922 84.3647H93.7587ZM97.8625 81.5615L96.8532 78.0446C96.5634 77.0612 96.277 75.832 96.0371 74.8453H95.9905C95.7506 75.8286 95.5108 77.0851 95.2477 78.0446L94.2883 81.5615H97.8625Z" fill="white"/>
<path d="M2.22175 35.3938H0.233124V33.9529H5.9292V35.3938H3.90726V41.5466H2.22509V35.3938H2.22175Z" fill="#F9F5F6"/>
<path d="M13.7205 37.6716C13.7205 40.1607 12.2482 41.6733 10.083 41.6733C7.88451 41.6733 6.59872 39.9729 6.59872 37.8082C6.59872 35.5307 8.01775 33.8303 10.2062 33.8303C12.478 33.8269 13.7205 35.5751 13.7205 37.6716ZM8.36417 37.7706C8.36417 39.2593 9.04704 40.3075 10.1663 40.3075C11.2988 40.3075 11.9484 39.2047 11.9484 37.7262C11.9484 36.3638 11.3121 35.1893 10.1563 35.1893C9.02372 35.1893 8.36417 36.2956 8.36417 37.7706Z" fill="#F9F5F6"/>
<path d="M15.2994 34.0521C15.8157 33.9633 16.5419 33.895 17.5645 33.895C18.5971 33.895 19.3333 34.0965 19.8296 34.5028C20.3026 34.8852 20.6224 35.5169 20.6224 36.2612C20.6224 37.0056 20.3792 37.6373 19.9395 38.0641C19.3666 38.6172 18.5205 38.863 17.5312 38.863C17.3114 38.863 17.1148 38.8528 16.9583 38.8289V41.5434H15.2994V34.0521ZM16.9616 37.5007C17.1048 37.5348 17.2814 37.5451 17.5212 37.5451C18.4106 37.5451 18.9602 37.0841 18.9602 36.3056C18.9602 35.6057 18.4872 35.1891 17.6511 35.1891C17.3114 35.1891 17.0782 35.2232 16.9583 35.2574V37.5007H16.9616Z" fill="#F9F5F6"/>
<path d="M26.655 33.9497V35.3599H23.8502V41.5469H22.1681V33.9497H26.655Z" fill="#F9F5F6"/>
<path d="M34.4496 37.6716C34.4496 40.1607 32.9773 41.6733 30.8121 41.6733C28.6136 41.6733 27.3278 39.9729 27.3278 37.8082C27.3278 35.5307 28.7468 33.8303 30.9353 33.8303C33.2071 33.8269 34.4496 35.5751 34.4496 37.6716ZM29.0966 37.7706C29.0966 39.2593 29.7795 40.3075 30.8987 40.3075C32.0312 40.3075 32.6808 39.2047 32.6808 37.7262C32.6808 36.3638 32.0446 35.1893 30.8887 35.1893C29.7561 35.1893 29.0966 36.2956 29.0966 37.7706Z" fill="#F9F5F6"/>
<path d="M36.0318 34.0521C36.4715 33.9633 37.3609 33.895 38.197 33.895C39.2196 33.895 39.8459 33.9975 40.3855 34.3218C40.9018 34.6052 41.2749 35.1208 41.2749 35.8105C41.2749 36.4866 40.8918 37.1183 40.0557 37.4324V37.4563C40.9018 37.6919 41.5281 38.3475 41.5281 39.3274C41.5281 40.0137 41.2216 40.5566 40.7586 40.939C40.219 41.3795 39.3196 41.6253 37.8439 41.6253C37.0178 41.6253 36.4049 41.5673 36.0285 41.5127V34.0521H36.0318ZM37.694 36.9612H38.2436C39.123 36.9612 39.596 36.589 39.596 36.0256C39.596 35.452 39.1663 35.1481 38.4102 35.1481C38.0471 35.1481 37.8373 35.172 37.694 35.1925V36.9612ZM37.694 40.3278C37.8606 40.3517 38.0571 40.3517 38.3436 40.3517C39.1031 40.3517 39.7726 40.0581 39.7726 39.2591C39.7726 38.4943 39.1031 38.187 38.267 38.187H37.694V40.3278Z" fill="#F9F5F6"/>
<path d="M44.8256 33.9497V36.5993C45.0355 36.5652 45.3753 36.531 45.6517 36.531C47.1807 36.531 48.5864 37.3095 48.5864 39.0202C48.5864 39.7304 48.3565 40.2596 47.9935 40.6557C47.2773 41.4 46.0381 41.6254 44.9489 41.6254C44.1461 41.6254 43.5299 41.5673 43.1568 41.5127V33.9497H44.8256ZM44.8157 40.2972C44.9589 40.3313 45.1554 40.3416 45.3886 40.3416C46.1248 40.3416 46.8276 39.9011 46.8276 39.068C46.8276 38.2007 46.0481 37.8524 45.4086 37.8524C45.1787 37.8524 44.9789 37.8763 44.8157 37.8968V40.2972ZM50.9381 33.9497V41.5469H49.2659V33.9497H50.9381Z" fill="#F9F5F6"/>
<path d="M54.5424 33.9496V36.2032C54.5424 37.4187 54.5191 38.6274 54.4558 39.6415H54.4991C54.8855 38.7503 55.3785 37.7499 55.8182 36.9373L57.4138 33.9496H59.1293V41.5468H57.5903V39.3035C57.5903 38.1323 57.6136 37.0943 57.7102 36.1041H57.6769C57.3372 37.0056 56.8642 38.0094 56.4245 38.8084L54.9188 41.5468H53.0068V33.9496H54.5424ZM55.5784 32.2151C55.5884 32.6556 55.7116 32.9014 56.0614 32.9014C56.4011 32.9014 56.5344 32.6521 56.5777 32.2151H57.7002C57.6336 33.1848 57.0174 33.6014 56.0414 33.6014C55.0754 33.6014 54.5258 33.1609 54.4358 32.2151H55.5784Z" fill="#F9F5F6"/>
<path d="M6.67203 48.6316V54.8732L7.40818 54.9176L7.33157 58.1511H6.05578L5.96918 56.2253H1.63882L1.55222 58.1511H0.276429L0.209808 54.9176L0.826051 54.8732C1.12251 54.3337 1.36568 53.7806 1.5289 53.183C1.73876 52.4182 1.82536 51.5953 1.82536 50.6598V48.6316H6.67203ZM3.3743 51.0456C3.3743 51.9265 3.26437 52.7801 3.04452 53.5484C2.91128 54.0093 2.72474 54.4737 2.52821 54.8322H4.98985V50.0315H3.3743V51.0456Z" fill="#F9F5F6"/>
<path d="M15.5427 52.354C15.5427 54.8431 14.0704 56.3557 11.9052 56.3557C9.70671 56.3557 8.42093 54.6553 8.42093 52.4905C8.42093 50.2131 9.83995 48.5127 12.0284 48.5127C14.3002 48.5093 15.5427 50.2575 15.5427 52.354ZM10.1897 52.453C10.1897 53.9417 10.8726 54.9899 11.9918 54.9899C13.1244 54.9899 13.7739 53.887 13.7739 52.4086C13.7739 51.0462 13.1377 49.8717 11.9818 49.8717C10.8493 49.8751 10.1897 50.9779 10.1897 52.453Z" fill="#F9F5F6"/>
<path d="M23.3372 53.3196C23.3039 52.408 23.2706 51.3017 23.2706 50.1988H23.2373C23.0075 51.1685 22.6977 52.2509 22.4112 53.1387L21.5085 56.1024H20.1994L19.4066 53.1626C19.1635 52.2714 18.9103 51.189 18.7371 50.1988H18.7138C18.6705 51.2232 18.6371 52.3977 18.5805 53.3435L18.4473 56.2287H16.8983L17.3714 48.6316H19.6031L20.3293 51.1685C20.5592 52.046 20.7923 52.9953 20.9556 53.883H20.9889C21.1987 53.0055 21.4519 52.0016 21.6917 51.1549L22.4845 48.6316H24.673L25.0794 56.2287H23.4405L23.3372 53.3196Z" fill="#F9F5F6"/>
</svg>
