<svg width="332" height="62" viewBox="0 0 332 62" fill="none" xmlns="http://www.w3.org/2000/svg">
<mask id="path-1-outside-1_107_3" maskUnits="userSpaceOnUse" x="0.822327" y="-0.323242" width="331" height="62" fill="black">
<rect fill="white" x="0.822327" y="-0.323242" width="331" height="62"/>
<path fill-rule="evenodd" clip-rule="evenodd" d="M82.4272 0.676758C88.7941 0.676758 93.9173 5.2669 93.9173 10.9231C93.9173 16.609 88.7941 21.1991 82.4272 21.1991C76.0898 21.1991 70.9666 16.609 70.9666 10.9231C70.9666 5.2669 76.0898 0.676758 82.4272 0.676758ZM82.4272 18.3266C86.9581 18.3266 90.6302 15.0098 90.6302 10.9231C90.6302 6.86604 86.9581 3.5493 82.4272 3.5493C77.8962 3.5493 74.2241 6.86604 74.2241 10.9231C74.2241 15.0098 77.8962 18.3266 82.4272 18.3266Z"/>
<path d="M185.264 9.47202L195.629 20.7845H191.749L183.072 11.3377L182.095 12.1669V20.7845H178.838V1.09131H182.095V7.04368C182.095 7.45828 182.036 7.87287 181.858 8.25785L181.503 9.20549L181.888 9.38318L182.095 8.90936C182.273 8.40592 182.598 7.96171 183.013 7.63596L190.713 1.09131H195.155L185.264 9.47202Z"/>
<path fill-rule="evenodd" clip-rule="evenodd" d="M303.341 48.9231C303.341 43.2669 298.218 38.6768 291.851 38.6768C285.514 38.6768 280.391 43.2669 280.391 48.9231C280.391 54.609 285.514 59.1991 291.851 59.1991C298.218 59.1991 303.341 54.609 303.341 48.9231ZM300.054 48.9231C300.054 53.0098 296.382 56.3266 291.851 56.3266C287.32 56.3266 283.648 53.0098 283.648 48.9231C283.648 44.866 287.32 41.5493 291.851 41.5493C296.382 41.5493 300.054 44.866 300.054 48.9231Z"/>
<path d="M330.82 39.0913H325.726L320.781 48.0051C320.514 48.4789 320.366 49.0119 320.366 49.5746V50.1669H319.922V49.6338C319.922 49.0712 319.774 48.5085 319.508 48.0347L314.562 39.0913H309.498V58.7845H312.756V43.3853C312.756 42.9707 312.696 42.5561 312.519 42.1711L312.163 41.2235L312.548 41.0754L312.963 42.0823L313.141 42.4377L318.323 51.7956H321.936L327.207 42.3192C327.266 42.1711 327.326 42.0527 327.385 41.9342L327.74 41.0754L328.155 41.2235L327.77 42.1711C327.622 42.5561 327.533 42.9707 327.533 43.3853V58.7845H330.82V39.0913Z"/>
<path fill-rule="evenodd" clip-rule="evenodd" d="M273.773 55.912H276.231L275.817 60.8278H272.944V59.4952C272.944 59.2879 273.003 59.0806 273.122 58.9029L273.951 57.6592L273.596 57.4223L273.003 58.2811C272.796 58.6068 272.47 58.7845 272.085 58.7845H259.026C258.67 58.7845 258.315 58.6068 258.108 58.2811L257.545 57.4223L257.16 57.6592L257.989 58.9029C258.108 59.0806 258.167 59.2879 258.167 59.4952V60.8278H255.294L254.909 56.3265H255.709C256.627 56.3265 257.367 55.7639 257.367 55.0828L257.752 39.0913H273.773V55.912ZM270.486 55.912V41.5493H260.98L260.625 55.0828C260.625 55.3789 260.595 55.6454 260.536 55.912H270.486Z"/>
<path d="M250.207 58.7845L243.603 49.4561C243.396 49.16 242.981 49.0119 242.626 49.1304L242.507 48.7158L243.011 48.5677C243.188 48.5085 243.336 48.39 243.425 48.242L249.911 39.0913H246.416L240.582 47.2943H239.279V39.0913H235.992V47.2943H234.719L228.885 39.0913H225.361L231.876 48.242C231.965 48.39 232.113 48.5085 232.29 48.5677L232.794 48.7158L232.646 49.1304C232.29 49.0119 231.905 49.16 231.698 49.4561L225.094 58.7845H228.589L234.423 50.5815H235.992V58.7845H239.279V50.5815H240.878L246.683 58.7845H250.207Z"/>
<path fill-rule="evenodd" clip-rule="evenodd" d="M212.034 39.0913L220.177 58.7845H216.624L215.084 55.0828H204.423L202.883 58.7845H199.359L207.473 39.0913H212.034ZM205.607 52.2102H213.899L210.227 43.2965C210.079 42.9115 209.99 42.4969 209.99 42.0823L209.961 41.1347H209.546V41.9935C209.546 42.4377 209.457 42.8523 209.28 43.2669L205.607 52.2102Z"/>
<path d="M194.438 58.7845L184.073 47.472L193.964 39.0913H189.522L181.823 45.636C181.408 45.9617 181.082 46.4059 180.905 46.9094L180.697 47.3832L180.312 47.2055L180.668 46.2579C180.845 45.8729 180.905 45.4583 180.905 45.0437V39.0913H177.647V58.7845H180.905V50.1669L181.882 49.3377L190.559 58.7845H194.438Z"/>
<path fill-rule="evenodd" clip-rule="evenodd" d="M153.121 46.2875C155.194 47.5609 156.556 49.9004 156.437 52.536C156.289 56.1193 153.387 59.0214 149.804 59.1695C145.806 59.3768 142.489 56.1785 142.489 52.2102H145.776C145.776 54.4905 147.435 56.3265 149.478 56.3265C151.492 56.3265 153.15 54.4905 153.15 52.2102C153.15 49.9596 151.492 48.1235 149.478 48.1235H142.075V58.7845H138.817V39.0913H147.82C150.781 39.0913 153.15 41.105 153.15 43.5926C153.15 44.1257 153.061 44.6291 152.854 45.1029C152.706 45.4583 152.41 45.6952 152.025 45.7544L151.492 45.8433L151.551 46.2875L152.38 46.1394C152.647 46.1098 152.913 46.1394 153.121 46.2875ZM147.82 45.251C148.945 45.251 149.863 44.5106 149.863 43.5926C149.863 42.7042 148.945 41.9638 147.82 41.9638H142.075V45.251H147.82Z"/>
<path d="M117.972 39.0913H100.766V41.9638H107.726V58.7845H111.013V41.9638H117.972V39.0913Z"/>
<path d="M96.0188 41.9638H84.9432V45.251H92.3466V48.1235H84.9432V55.912H96.0188V58.7845H81.6857V39.0913H96.0188V41.9638Z"/>
<path fill-rule="evenodd" clip-rule="evenodd" d="M75.6542 52.536C75.7726 49.9004 74.4104 47.5609 72.3374 46.2875C72.1301 46.1394 71.8636 46.1098 71.5971 46.1394L70.7679 46.2875L70.7086 45.8433L71.2417 45.7544C71.6267 45.6952 71.9228 45.4583 72.0709 45.1029C72.2782 44.6291 72.367 44.1257 72.367 43.5926C72.367 41.105 69.9979 39.0913 67.0365 39.0913H58.0339V58.7845H61.2915V48.1235H68.6949C70.7086 48.1235 72.367 49.9596 72.367 52.2102C72.367 54.4905 70.7086 56.3265 68.6949 56.3265C66.6516 56.3265 64.9932 54.4905 64.9932 52.2102H61.706C61.706 56.1785 65.0228 59.3768 69.0207 59.1695C72.6039 59.0214 75.5061 56.1193 75.6542 52.536ZM69.0799 43.5926C69.0799 44.5106 68.1619 45.251 67.0365 45.251H61.2915V41.9638H67.0365C68.1619 41.9638 69.0799 42.7042 69.0799 43.5926Z"/>
<path d="M47.7804 39.0913H51.0676V58.7845H47.7804V44.4218C47.7804 44.0664 47.8397 43.7111 47.9581 43.3853L48.4023 42.0231L47.9877 41.9046L47.5435 43.2076C47.4251 43.563 47.2474 43.8887 47.0401 44.1553L35.8757 58.7845H32.6182V39.0913H35.8757V53.454C35.8757 53.8094 35.8165 54.1647 35.7276 54.4905L35.2538 55.8527L35.6684 55.9712L36.1126 54.6682C36.231 54.3128 36.4087 53.9871 36.616 53.7205L47.7804 39.0913Z"/>
<path d="M26.9348 58.7845L20.331 49.4561C20.1237 49.16 19.7091 49.0119 19.3537 49.1304L19.2352 48.7158L19.7387 48.5677C19.9164 48.5085 20.0644 48.39 20.1533 48.242L26.6387 39.0913H23.1443L17.3104 47.2943H16.0073V39.0913H12.7202V47.2943H11.4468L5.61289 39.0913H2.08885L8.60389 48.242C8.69273 48.39 8.8408 48.5085 9.01848 48.5677L9.52192 48.7158L9.37385 49.1304C9.01848 49.0119 8.6335 49.16 8.42621 49.4561L1.82233 58.7845H5.31676L11.1507 50.5815H12.7202V58.7845H16.0073V50.5815H17.6065L23.4108 58.7845H26.9348Z"/>
<path d="M171.871 1.09131H168.584L157.42 15.7205C157.212 15.9871 157.035 16.3128 156.916 16.6682L156.472 17.9712L156.057 17.8527L156.531 16.4905C156.62 16.1647 156.679 15.8094 156.679 15.454V1.09131H153.422V20.7845H156.679L167.844 6.15527C168.051 5.88875 168.229 5.56299 168.347 5.20763L168.791 3.90462L169.206 4.02308L168.762 5.38531C168.643 5.71106 168.584 6.06643 168.584 6.42179V20.7845H171.871V1.09131Z"/>
<path d="M143.168 1.09131H146.455V20.7845H143.168V10.1235H131.263V20.7845H128.006V1.09131H131.263V7.25098H143.168V1.09131Z"/>
<path d="M122.323 20.7845L115.719 11.4561C115.511 11.16 115.097 11.0119 114.741 11.1304L114.623 10.7158L115.126 10.5677C115.304 10.5085 115.452 10.39 115.541 10.242L122.026 1.09131H118.532L112.698 9.29433H111.395V1.09131H108.108V9.29433H106.835L101.001 1.09131H97.4765L103.992 10.242C104.08 10.39 104.228 10.5085 104.406 10.5677L104.91 10.7158L104.762 11.1304C104.406 11.0119 104.021 11.16 103.814 11.4561L97.21 20.7845H100.704L106.538 12.5815H108.108V20.7845H111.395V12.5815H112.994L118.798 20.7845H122.323Z"/>
<path fill-rule="evenodd" clip-rule="evenodd" d="M66.8073 17.912H64.3493V1.09131H48.3283L47.9433 17.0828C47.9433 17.7639 47.203 18.3265 46.2849 18.3265H45.4854L45.8703 22.8278H48.7429V21.4952C48.7429 21.2879 48.6836 21.0806 48.5652 20.903L47.736 19.6592L48.121 19.4223L48.6836 20.2811C48.8909 20.6068 49.2463 20.7845 49.6017 20.7845H62.6614C63.0463 20.7845 63.3721 20.6068 63.5794 20.2811L64.1717 19.4223L64.527 19.6592L63.6978 20.903C63.5794 21.0806 63.5202 21.2879 63.5202 21.4952V22.8278H66.3927L66.8073 17.912ZM61.0622 3.54925V17.912H51.112C51.1712 17.6454 51.2008 17.3789 51.2008 17.0828L51.5562 3.54925H61.0622Z"/>
<path d="M39.0795 1.09131H42.2778L32.4756 20.7845H29.2773L31.3207 16.6682L23.5915 1.09131H26.7898L32.3572 12.3149C32.5941 12.7592 32.7125 13.2626 32.7125 13.766V14.3287H33.1568V13.766C33.1568 13.2626 33.2752 12.7592 33.5121 12.3149L39.0795 1.09131Z"/>
<path d="M19.2945 20.7845L12.1575 10.7454L18.9983 1.09131H15.4743L11.358 6.89562C10.973 7.42866 10.7657 8.10978 10.7657 8.7909V8.87974H10.3215V8.7909C10.3215 8.10978 10.1142 7.42866 9.72921 6.89562L5.61289 1.09131H2.08885L8.92964 10.7454L1.82233 20.7845H5.31676L9.72921 14.5952C10.1142 14.0325 10.3215 13.3514 10.3215 12.6703V12.5815H10.7657V12.6703C10.7657 13.3514 10.973 14.0325 11.358 14.5952L15.7704 20.7845H19.2945Z"/>
</mask>
<path fill-rule="evenodd" clip-rule="evenodd" d="M82.4272 0.676758C88.7941 0.676758 93.9173 5.2669 93.9173 10.9231C93.9173 16.609 88.7941 21.1991 82.4272 21.1991C76.0898 21.1991 70.9666 16.609 70.9666 10.9231C70.9666 5.2669 76.0898 0.676758 82.4272 0.676758ZM82.4272 18.3266C86.9581 18.3266 90.6302 15.0098 90.6302 10.9231C90.6302 6.86604 86.9581 3.5493 82.4272 3.5493C77.8962 3.5493 74.2241 6.86604 74.2241 10.9231C74.2241 15.0098 77.8962 18.3266 82.4272 18.3266Z" fill="#F9F5F6"/>
<path d="M185.264 9.47202L195.629 20.7845H191.749L183.072 11.3377L182.095 12.1669V20.7845H178.838V1.09131H182.095V7.04368C182.095 7.45828 182.036 7.87287 181.858 8.25785L181.503 9.20549L181.888 9.38318L182.095 8.90936C182.273 8.40592 182.598 7.96171 183.013 7.63596L190.713 1.09131H195.155L185.264 9.47202Z" fill="#F9F5F6"/>
<path fill-rule="evenodd" clip-rule="evenodd" d="M303.341 48.9231C303.341 43.2669 298.218 38.6768 291.851 38.6768C285.514 38.6768 280.391 43.2669 280.391 48.9231C280.391 54.609 285.514 59.1991 291.851 59.1991C298.218 59.1991 303.341 54.609 303.341 48.9231ZM300.054 48.9231C300.054 53.0098 296.382 56.3266 291.851 56.3266C287.32 56.3266 283.648 53.0098 283.648 48.9231C283.648 44.866 287.32 41.5493 291.851 41.5493C296.382 41.5493 300.054 44.866 300.054 48.9231Z" fill="#F9F5F6"/>
<path d="M330.82 39.0913H325.726L320.781 48.0051C320.514 48.4789 320.366 49.0119 320.366 49.5746V50.1669H319.922V49.6338C319.922 49.0712 319.774 48.5085 319.508 48.0347L314.562 39.0913H309.498V58.7845H312.756V43.3853C312.756 42.9707 312.696 42.5561 312.519 42.1711L312.163 41.2235L312.548 41.0754L312.963 42.0823L313.141 42.4377L318.323 51.7956H321.936L327.207 42.3192C327.266 42.1711 327.326 42.0527 327.385 41.9342L327.74 41.0754L328.155 41.2235L327.77 42.1711C327.622 42.5561 327.533 42.9707 327.533 43.3853V58.7845H330.82V39.0913Z" fill="#F9F5F6"/>
<path fill-rule="evenodd" clip-rule="evenodd" d="M273.773 55.912H276.231L275.817 60.8278H272.944V59.4952C272.944 59.2879 273.003 59.0806 273.122 58.9029L273.951 57.6592L273.596 57.4223L273.003 58.2811C272.796 58.6068 272.47 58.7845 272.085 58.7845H259.026C258.67 58.7845 258.315 58.6068 258.108 58.2811L257.545 57.4223L257.16 57.6592L257.989 58.9029C258.108 59.0806 258.167 59.2879 258.167 59.4952V60.8278H255.294L254.909 56.3265H255.709C256.627 56.3265 257.367 55.7639 257.367 55.0828L257.752 39.0913H273.773V55.912ZM270.486 55.912V41.5493H260.98L260.625 55.0828C260.625 55.3789 260.595 55.6454 260.536 55.912H270.486Z" fill="#F9F5F6"/>
<path d="M250.207 58.7845L243.603 49.4561C243.396 49.16 242.981 49.0119 242.626 49.1304L242.507 48.7158L243.011 48.5677C243.188 48.5085 243.336 48.39 243.425 48.242L249.911 39.0913H246.416L240.582 47.2943H239.279V39.0913H235.992V47.2943H234.719L228.885 39.0913H225.361L231.876 48.242C231.965 48.39 232.113 48.5085 232.29 48.5677L232.794 48.7158L232.646 49.1304C232.29 49.0119 231.905 49.16 231.698 49.4561L225.094 58.7845H228.589L234.423 50.5815H235.992V58.7845H239.279V50.5815H240.878L246.683 58.7845H250.207Z" fill="#F9F5F6"/>
<path fill-rule="evenodd" clip-rule="evenodd" d="M212.034 39.0913L220.177 58.7845H216.624L215.084 55.0828H204.423L202.883 58.7845H199.359L207.473 39.0913H212.034ZM205.607 52.2102H213.899L210.227 43.2965C210.079 42.9115 209.99 42.4969 209.99 42.0823L209.961 41.1347H209.546V41.9935C209.546 42.4377 209.457 42.8523 209.28 43.2669L205.607 52.2102Z" fill="#F9F5F6"/>
<path d="M194.438 58.7845L184.073 47.472L193.964 39.0913H189.522L181.823 45.636C181.408 45.9617 181.082 46.4059 180.905 46.9094L180.697 47.3832L180.312 47.2055L180.668 46.2579C180.845 45.8729 180.905 45.4583 180.905 45.0437V39.0913H177.647V58.7845H180.905V50.1669L181.882 49.3377L190.559 58.7845H194.438Z" fill="#F9F5F6"/>
<path fill-rule="evenodd" clip-rule="evenodd" d="M153.121 46.2875C155.194 47.5609 156.556 49.9004 156.437 52.536C156.289 56.1193 153.387 59.0214 149.804 59.1695C145.806 59.3768 142.489 56.1785 142.489 52.2102H145.776C145.776 54.4905 147.435 56.3265 149.478 56.3265C151.492 56.3265 153.15 54.4905 153.15 52.2102C153.15 49.9596 151.492 48.1235 149.478 48.1235H142.075V58.7845H138.817V39.0913H147.82C150.781 39.0913 153.15 41.105 153.15 43.5926C153.15 44.1257 153.061 44.6291 152.854 45.1029C152.706 45.4583 152.41 45.6952 152.025 45.7544L151.492 45.8433L151.551 46.2875L152.38 46.1394C152.647 46.1098 152.913 46.1394 153.121 46.2875ZM147.82 45.251C148.945 45.251 149.863 44.5106 149.863 43.5926C149.863 42.7042 148.945 41.9638 147.82 41.9638H142.075V45.251H147.82Z" fill="#F9F5F6"/>
<path d="M117.972 39.0913H100.766V41.9638H107.726V58.7845H111.013V41.9638H117.972V39.0913Z" fill="#F9F5F6"/>
<path d="M96.0188 41.9638H84.9432V45.251H92.3466V48.1235H84.9432V55.912H96.0188V58.7845H81.6857V39.0913H96.0188V41.9638Z" fill="#F9F5F6"/>
<path fill-rule="evenodd" clip-rule="evenodd" d="M75.6542 52.536C75.7726 49.9004 74.4104 47.5609 72.3374 46.2875C72.1301 46.1394 71.8636 46.1098 71.5971 46.1394L70.7679 46.2875L70.7086 45.8433L71.2417 45.7544C71.6267 45.6952 71.9228 45.4583 72.0709 45.1029C72.2782 44.6291 72.367 44.1257 72.367 43.5926C72.367 41.105 69.9979 39.0913 67.0365 39.0913H58.0339V58.7845H61.2915V48.1235H68.6949C70.7086 48.1235 72.367 49.9596 72.367 52.2102C72.367 54.4905 70.7086 56.3265 68.6949 56.3265C66.6516 56.3265 64.9932 54.4905 64.9932 52.2102H61.706C61.706 56.1785 65.0228 59.3768 69.0207 59.1695C72.6039 59.0214 75.5061 56.1193 75.6542 52.536ZM69.0799 43.5926C69.0799 44.5106 68.1619 45.251 67.0365 45.251H61.2915V41.9638H67.0365C68.1619 41.9638 69.0799 42.7042 69.0799 43.5926Z" fill="#F9F5F6"/>
<path d="M47.7804 39.0913H51.0676V58.7845H47.7804V44.4218C47.7804 44.0664 47.8397 43.7111 47.9581 43.3853L48.4023 42.0231L47.9877 41.9046L47.5435 43.2076C47.4251 43.563 47.2474 43.8887 47.0401 44.1553L35.8757 58.7845H32.6182V39.0913H35.8757V53.454C35.8757 53.8094 35.8165 54.1647 35.7276 54.4905L35.2538 55.8527L35.6684 55.9712L36.1126 54.6682C36.231 54.3128 36.4087 53.9871 36.616 53.7205L47.7804 39.0913Z" fill="#F9F5F6"/>
<path d="M26.9348 58.7845L20.331 49.4561C20.1237 49.16 19.7091 49.0119 19.3537 49.1304L19.2352 48.7158L19.7387 48.5677C19.9164 48.5085 20.0644 48.39 20.1533 48.242L26.6387 39.0913H23.1443L17.3104 47.2943H16.0073V39.0913H12.7202V47.2943H11.4468L5.61289 39.0913H2.08885L8.60389 48.242C8.69273 48.39 8.8408 48.5085 9.01848 48.5677L9.52192 48.7158L9.37385 49.1304C9.01848 49.0119 8.6335 49.16 8.42621 49.4561L1.82233 58.7845H5.31676L11.1507 50.5815H12.7202V58.7845H16.0073V50.5815H17.6065L23.4108 58.7845H26.9348Z" fill="#F9F5F6"/>
<path d="M171.871 1.09131H168.584L157.42 15.7205C157.212 15.9871 157.035 16.3128 156.916 16.6682L156.472 17.9712L156.057 17.8527L156.531 16.4905C156.62 16.1647 156.679 15.8094 156.679 15.454V1.09131H153.422V20.7845H156.679L167.844 6.15527C168.051 5.88875 168.229 5.56299 168.347 5.20763L168.791 3.90462L169.206 4.02308L168.762 5.38531C168.643 5.71106 168.584 6.06643 168.584 6.42179V20.7845H171.871V1.09131Z" fill="#F9F5F6"/>
<path d="M143.168 1.09131H146.455V20.7845H143.168V10.1235H131.263V20.7845H128.006V1.09131H131.263V7.25098H143.168V1.09131Z" fill="#F9F5F6"/>
<path d="M122.323 20.7845L115.719 11.4561C115.511 11.16 115.097 11.0119 114.741 11.1304L114.623 10.7158L115.126 10.5677C115.304 10.5085 115.452 10.39 115.541 10.242L122.026 1.09131H118.532L112.698 9.29433H111.395V1.09131H108.108V9.29433H106.835L101.001 1.09131H97.4765L103.992 10.242C104.08 10.39 104.228 10.5085 104.406 10.5677L104.91 10.7158L104.762 11.1304C104.406 11.0119 104.021 11.16 103.814 11.4561L97.21 20.7845H100.704L106.538 12.5815H108.108V20.7845H111.395V12.5815H112.994L118.798 20.7845H122.323Z" fill="#F9F5F6"/>
<path fill-rule="evenodd" clip-rule="evenodd" d="M66.8073 17.912H64.3493V1.09131H48.3283L47.9433 17.0828C47.9433 17.7639 47.203 18.3265 46.2849 18.3265H45.4854L45.8703 22.8278H48.7429V21.4952C48.7429 21.2879 48.6836 21.0806 48.5652 20.903L47.736 19.6592L48.121 19.4223L48.6836 20.2811C48.8909 20.6068 49.2463 20.7845 49.6017 20.7845H62.6614C63.0463 20.7845 63.3721 20.6068 63.5794 20.2811L64.1717 19.4223L64.527 19.6592L63.6978 20.903C63.5794 21.0806 63.5202 21.2879 63.5202 21.4952V22.8278H66.3927L66.8073 17.912ZM61.0622 3.54925V17.912H51.112C51.1712 17.6454 51.2008 17.3789 51.2008 17.0828L51.5562 3.54925H61.0622Z" fill="#F9F5F6"/>
<path d="M39.0795 1.09131H42.2778L32.4756 20.7845H29.2773L31.3207 16.6682L23.5915 1.09131H26.7898L32.3572 12.3149C32.5941 12.7592 32.7125 13.2626 32.7125 13.766V14.3287H33.1568V13.766C33.1568 13.2626 33.2752 12.7592 33.5121 12.3149L39.0795 1.09131Z" fill="#F9F5F6"/>
<path d="M19.2945 20.7845L12.1575 10.7454L18.9983 1.09131H15.4743L11.358 6.89562C10.973 7.42866 10.7657 8.10978 10.7657 8.7909V8.87974H10.3215V8.7909C10.3215 8.10978 10.1142 7.42866 9.72921 6.89562L5.61289 1.09131H2.08885L8.92964 10.7454L1.82233 20.7845H5.31676L9.72921 14.5952C10.1142 14.0325 10.3215 13.3514 10.3215 12.6703V12.5815H10.7657V12.6703C10.7657 13.3514 10.973 14.0325 11.358 14.5952L15.7704 20.7845H19.2945Z" fill="#F9F5F6"/>
<path fill-rule="evenodd" clip-rule="evenodd" d="M82.4272 0.676758C88.7941 0.676758 93.9173 5.2669 93.9173 10.9231C93.9173 16.609 88.7941 21.1991 82.4272 21.1991C76.0898 21.1991 70.9666 16.609 70.9666 10.9231C70.9666 5.2669 76.0898 0.676758 82.4272 0.676758ZM82.4272 18.3266C86.9581 18.3266 90.6302 15.0098 90.6302 10.9231C90.6302 6.86604 86.9581 3.5493 82.4272 3.5493C77.8962 3.5493 74.2241 6.86604 74.2241 10.9231C74.2241 15.0098 77.8962 18.3266 82.4272 18.3266Z" stroke="#F9F5F6" mask="url(#path-1-outside-1_107_3)"/>
<path d="M185.264 9.47202L195.629 20.7845H191.749L183.072 11.3377L182.095 12.1669V20.7845H178.838V1.09131H182.095V7.04368C182.095 7.45828 182.036 7.87287 181.858 8.25785L181.503 9.20549L181.888 9.38318L182.095 8.90936C182.273 8.40592 182.598 7.96171 183.013 7.63596L190.713 1.09131H195.155L185.264 9.47202Z" stroke="#F9F5F6" mask="url(#path-1-outside-1_107_3)"/>
<path fill-rule="evenodd" clip-rule="evenodd" d="M303.341 48.9231C303.341 43.2669 298.218 38.6768 291.851 38.6768C285.514 38.6768 280.391 43.2669 280.391 48.9231C280.391 54.609 285.514 59.1991 291.851 59.1991C298.218 59.1991 303.341 54.609 303.341 48.9231ZM300.054 48.9231C300.054 53.0098 296.382 56.3266 291.851 56.3266C287.32 56.3266 283.648 53.0098 283.648 48.9231C283.648 44.866 287.32 41.5493 291.851 41.5493C296.382 41.5493 300.054 44.866 300.054 48.9231Z" stroke="#F9F5F6" mask="url(#path-1-outside-1_107_3)"/>
<path d="M330.82 39.0913H325.726L320.781 48.0051C320.514 48.4789 320.366 49.0119 320.366 49.5746V50.1669H319.922V49.6338C319.922 49.0712 319.774 48.5085 319.508 48.0347L314.562 39.0913H309.498V58.7845H312.756V43.3853C312.756 42.9707 312.696 42.5561 312.519 42.1711L312.163 41.2235L312.548 41.0754L312.963 42.0823L313.141 42.4377L318.323 51.7956H321.936L327.207 42.3192C327.266 42.1711 327.326 42.0527 327.385 41.9342L327.74 41.0754L328.155 41.2235L327.77 42.1711C327.622 42.5561 327.533 42.9707 327.533 43.3853V58.7845H330.82V39.0913Z" stroke="#F9F5F6" mask="url(#path-1-outside-1_107_3)"/>
<path fill-rule="evenodd" clip-rule="evenodd" d="M273.773 55.912H276.231L275.817 60.8278H272.944V59.4952C272.944 59.2879 273.003 59.0806 273.122 58.9029L273.951 57.6592L273.596 57.4223L273.003 58.2811C272.796 58.6068 272.47 58.7845 272.085 58.7845H259.026C258.67 58.7845 258.315 58.6068 258.108 58.2811L257.545 57.4223L257.16 57.6592L257.989 58.9029C258.108 59.0806 258.167 59.2879 258.167 59.4952V60.8278H255.294L254.909 56.3265H255.709C256.627 56.3265 257.367 55.7639 257.367 55.0828L257.752 39.0913H273.773V55.912ZM270.486 55.912V41.5493H260.98L260.625 55.0828C260.625 55.3789 260.595 55.6454 260.536 55.912H270.486Z" stroke="#F9F5F6" mask="url(#path-1-outside-1_107_3)"/>
<path d="M250.207 58.7845L243.603 49.4561C243.396 49.16 242.981 49.0119 242.626 49.1304L242.507 48.7158L243.011 48.5677C243.188 48.5085 243.336 48.39 243.425 48.242L249.911 39.0913H246.416L240.582 47.2943H239.279V39.0913H235.992V47.2943H234.719L228.885 39.0913H225.361L231.876 48.242C231.965 48.39 232.113 48.5085 232.29 48.5677L232.794 48.7158L232.646 49.1304C232.29 49.0119 231.905 49.16 231.698 49.4561L225.094 58.7845H228.589L234.423 50.5815H235.992V58.7845H239.279V50.5815H240.878L246.683 58.7845H250.207Z" stroke="#F9F5F6" mask="url(#path-1-outside-1_107_3)"/>
<path fill-rule="evenodd" clip-rule="evenodd" d="M212.034 39.0913L220.177 58.7845H216.624L215.084 55.0828H204.423L202.883 58.7845H199.359L207.473 39.0913H212.034ZM205.607 52.2102H213.899L210.227 43.2965C210.079 42.9115 209.99 42.4969 209.99 42.0823L209.961 41.1347H209.546V41.9935C209.546 42.4377 209.457 42.8523 209.28 43.2669L205.607 52.2102Z" stroke="#F9F5F6" mask="url(#path-1-outside-1_107_3)"/>
<path d="M194.438 58.7845L184.073 47.472L193.964 39.0913H189.522L181.823 45.636C181.408 45.9617 181.082 46.4059 180.905 46.9094L180.697 47.3832L180.312 47.2055L180.668 46.2579C180.845 45.8729 180.905 45.4583 180.905 45.0437V39.0913H177.647V58.7845H180.905V50.1669L181.882 49.3377L190.559 58.7845H194.438Z" stroke="#F9F5F6" mask="url(#path-1-outside-1_107_3)"/>
<path fill-rule="evenodd" clip-rule="evenodd" d="M153.121 46.2875C155.194 47.5609 156.556 49.9004 156.437 52.536C156.289 56.1193 153.387 59.0214 149.804 59.1695C145.806 59.3768 142.489 56.1785 142.489 52.2102H145.776C145.776 54.4905 147.435 56.3265 149.478 56.3265C151.492 56.3265 153.15 54.4905 153.15 52.2102C153.15 49.9596 151.492 48.1235 149.478 48.1235H142.075V58.7845H138.817V39.0913H147.82C150.781 39.0913 153.15 41.105 153.15 43.5926C153.15 44.1257 153.061 44.6291 152.854 45.1029C152.706 45.4583 152.41 45.6952 152.025 45.7544L151.492 45.8433L151.551 46.2875L152.38 46.1394C152.647 46.1098 152.913 46.1394 153.121 46.2875ZM147.82 45.251C148.945 45.251 149.863 44.5106 149.863 43.5926C149.863 42.7042 148.945 41.9638 147.82 41.9638H142.075V45.251H147.82Z" stroke="#F9F5F6" mask="url(#path-1-outside-1_107_3)"/>
<path d="M117.972 39.0913H100.766V41.9638H107.726V58.7845H111.013V41.9638H117.972V39.0913Z" stroke="#F9F5F6" mask="url(#path-1-outside-1_107_3)"/>
<path d="M96.0188 41.9638H84.9432V45.251H92.3466V48.1235H84.9432V55.912H96.0188V58.7845H81.6857V39.0913H96.0188V41.9638Z" stroke="#F9F5F6" mask="url(#path-1-outside-1_107_3)"/>
<path fill-rule="evenodd" clip-rule="evenodd" d="M75.6542 52.536C75.7726 49.9004 74.4104 47.5609 72.3374 46.2875C72.1301 46.1394 71.8636 46.1098 71.5971 46.1394L70.7679 46.2875L70.7086 45.8433L71.2417 45.7544C71.6267 45.6952 71.9228 45.4583 72.0709 45.1029C72.2782 44.6291 72.367 44.1257 72.367 43.5926C72.367 41.105 69.9979 39.0913 67.0365 39.0913H58.0339V58.7845H61.2915V48.1235H68.6949C70.7086 48.1235 72.367 49.9596 72.367 52.2102C72.367 54.4905 70.7086 56.3265 68.6949 56.3265C66.6516 56.3265 64.9932 54.4905 64.9932 52.2102H61.706C61.706 56.1785 65.0228 59.3768 69.0207 59.1695C72.6039 59.0214 75.5061 56.1193 75.6542 52.536ZM69.0799 43.5926C69.0799 44.5106 68.1619 45.251 67.0365 45.251H61.2915V41.9638H67.0365C68.1619 41.9638 69.0799 42.7042 69.0799 43.5926Z" stroke="#F9F5F6" mask="url(#path-1-outside-1_107_3)"/>
<path d="M47.7804 39.0913H51.0676V58.7845H47.7804V44.4218C47.7804 44.0664 47.8397 43.7111 47.9581 43.3853L48.4023 42.0231L47.9877 41.9046L47.5435 43.2076C47.4251 43.563 47.2474 43.8887 47.0401 44.1553L35.8757 58.7845H32.6182V39.0913H35.8757V53.454C35.8757 53.8094 35.8165 54.1647 35.7276 54.4905L35.2538 55.8527L35.6684 55.9712L36.1126 54.6682C36.231 54.3128 36.4087 53.9871 36.616 53.7205L47.7804 39.0913Z" stroke="#F9F5F6" mask="url(#path-1-outside-1_107_3)"/>
<path d="M26.9348 58.7845L20.331 49.4561C20.1237 49.16 19.7091 49.0119 19.3537 49.1304L19.2352 48.7158L19.7387 48.5677C19.9164 48.5085 20.0644 48.39 20.1533 48.242L26.6387 39.0913H23.1443L17.3104 47.2943H16.0073V39.0913H12.7202V47.2943H11.4468L5.61289 39.0913H2.08885L8.60389 48.242C8.69273 48.39 8.8408 48.5085 9.01848 48.5677L9.52192 48.7158L9.37385 49.1304C9.01848 49.0119 8.6335 49.16 8.42621 49.4561L1.82233 58.7845H5.31676L11.1507 50.5815H12.7202V58.7845H16.0073V50.5815H17.6065L23.4108 58.7845H26.9348Z" stroke="#F9F5F6" mask="url(#path-1-outside-1_107_3)"/>
<path d="M171.871 1.09131H168.584L157.42 15.7205C157.212 15.9871 157.035 16.3128 156.916 16.6682L156.472 17.9712L156.057 17.8527L156.531 16.4905C156.62 16.1647 156.679 15.8094 156.679 15.454V1.09131H153.422V20.7845H156.679L167.844 6.15527C168.051 5.88875 168.229 5.56299 168.347 5.20763L168.791 3.90462L169.206 4.02308L168.762 5.38531C168.643 5.71106 168.584 6.06643 168.584 6.42179V20.7845H171.871V1.09131Z" stroke="#F9F5F6" mask="url(#path-1-outside-1_107_3)"/>
<path d="M143.168 1.09131H146.455V20.7845H143.168V10.1235H131.263V20.7845H128.006V1.09131H131.263V7.25098H143.168V1.09131Z" stroke="#F9F5F6" mask="url(#path-1-outside-1_107_3)"/>
<path d="M122.323 20.7845L115.719 11.4561C115.511 11.16 115.097 11.0119 114.741 11.1304L114.623 10.7158L115.126 10.5677C115.304 10.5085 115.452 10.39 115.541 10.242L122.026 1.09131H118.532L112.698 9.29433H111.395V1.09131H108.108V9.29433H106.835L101.001 1.09131H97.4765L103.992 10.242C104.08 10.39 104.228 10.5085 104.406 10.5677L104.91 10.7158L104.762 11.1304C104.406 11.0119 104.021 11.16 103.814 11.4561L97.21 20.7845H100.704L106.538 12.5815H108.108V20.7845H111.395V12.5815H112.994L118.798 20.7845H122.323Z" stroke="#F9F5F6" mask="url(#path-1-outside-1_107_3)"/>
<path fill-rule="evenodd" clip-rule="evenodd" d="M66.8073 17.912H64.3493V1.09131H48.3283L47.9433 17.0828C47.9433 17.7639 47.203 18.3265 46.2849 18.3265H45.4854L45.8703 22.8278H48.7429V21.4952C48.7429 21.2879 48.6836 21.0806 48.5652 20.903L47.736 19.6592L48.121 19.4223L48.6836 20.2811C48.8909 20.6068 49.2463 20.7845 49.6017 20.7845H62.6614C63.0463 20.7845 63.3721 20.6068 63.5794 20.2811L64.1717 19.4223L64.527 19.6592L63.6978 20.903C63.5794 21.0806 63.5202 21.2879 63.5202 21.4952V22.8278H66.3927L66.8073 17.912ZM61.0622 3.54925V17.912H51.112C51.1712 17.6454 51.2008 17.3789 51.2008 17.0828L51.5562 3.54925H61.0622Z" stroke="#F9F5F6" mask="url(#path-1-outside-1_107_3)"/>
<path d="M39.0795 1.09131H42.2778L32.4756 20.7845H29.2773L31.3207 16.6682L23.5915 1.09131H26.7898L32.3572 12.3149C32.5941 12.7592 32.7125 13.2626 32.7125 13.766V14.3287H33.1568V13.766C33.1568 13.2626 33.2752 12.7592 33.5121 12.3149L39.0795 1.09131Z" stroke="#F9F5F6" mask="url(#path-1-outside-1_107_3)"/>
<path d="M19.2945 20.7845L12.1575 10.7454L18.9983 1.09131H15.4743L11.358 6.89562C10.973 7.42866 10.7657 8.10978 10.7657 8.7909V8.87974H10.3215V8.7909C10.3215 8.10978 10.1142 7.42866 9.72921 6.89562L5.61289 1.09131H2.08885L8.92964 10.7454L1.82233 20.7845H5.31676L9.72921 14.5952C10.1142 14.0325 10.3215 13.3514 10.3215 12.6703V12.5815H10.7657V12.6703C10.7657 13.3514 10.973 14.0325 11.358 14.5952L15.7704 20.7845H19.2945Z" stroke="#F9F5F6" mask="url(#path-1-outside-1_107_3)"/>
</svg>
